<svg width="17" height="17" viewBox="0 0 17 17" fill="none" xmlns="http://www.w3.org/2000/svg">
<path d="M16.8307 1.68869C16.9391 1.79857 17 1.94739 17 2.10254C17 2.25769 16.9391 2.40651 16.8307 2.51639L15.6202 3.74036L13.299 1.3956L14.5095 0.171629C14.6183 0.061735 14.7659 0 14.9198 0C15.0737 0 15.2212 0.061735 15.3301 0.171629L16.8307 1.68752V1.68869ZM14.7997 4.56806L12.4785 2.2233L4.57151 10.2119C4.50764 10.2764 4.45955 10.3551 4.43108 10.4417L3.49682 13.2718C3.47987 13.3234 3.47747 13.3788 3.48987 13.4317C3.50227 13.4846 3.52899 13.5329 3.56704 13.5714C3.60509 13.6098 3.65297 13.6368 3.70534 13.6493C3.7577 13.6618 3.81248 13.6594 3.86356 13.6423L6.66519 12.6985C6.7508 12.6701 6.82868 12.6219 6.89266 12.5578L14.7997 4.56806Z" fill="black"/>
<path fill-rule="evenodd" clip-rule="evenodd" d="M0 15.2414C0 15.7078 0.183412 16.1551 0.509887 16.4849C0.836363 16.8147 1.27916 17 1.74086 17H14.5072C14.9689 17 15.4117 16.8147 15.7382 16.4849C16.0647 16.1551 16.2481 15.7078 16.2481 15.2414V8.20714C16.2481 8.05167 16.1869 7.90257 16.0781 7.79264C15.9693 7.6827 15.8217 7.62094 15.6678 7.62094C15.5139 7.62094 15.3663 7.6827 15.2575 7.79264C15.1486 7.90257 15.0875 8.05167 15.0875 8.20714V15.2414C15.0875 15.3969 15.0264 15.546 14.9175 15.6559C14.8087 15.7659 14.6611 15.8276 14.5072 15.8276H1.74086C1.58696 15.8276 1.43936 15.7659 1.33054 15.6559C1.22171 15.546 1.16058 15.3969 1.16058 15.2414V2.34523C1.16058 2.18976 1.22171 2.04066 1.33054 1.93073C1.43936 1.82079 1.58696 1.75903 1.74086 1.75903H9.28461C9.43851 1.75903 9.58611 1.69727 9.69494 1.58734C9.80376 1.47741 9.8649 1.32831 9.8649 1.17284C9.8649 1.01738 9.80376 0.868276 9.69494 0.758343C9.58611 0.648411 9.43851 0.586652 9.28461 0.586652H1.74086C1.27916 0.586652 0.836363 0.77193 0.509887 1.10173C0.183412 1.43152 0 1.87882 0 2.34523V15.2414Z" fill="black"/>
</svg>
