<svg width="19" height="15" viewBox="0 0 19 15" fill="none" xmlns="http://www.w3.org/2000/svg">
<path d="M16.15 0H2.85C2.09413 0 1.36922 0.296316 0.834746 0.823762C0.300267 1.35121 0 2.06658 0 2.8125V12.1875C0 12.9334 0.300267 13.6488 0.834746 14.1762C1.36922 14.7037 2.09413 15 2.85 15H16.15C16.9059 15 17.6308 14.7037 18.1653 14.1762C18.6997 13.6488 19 12.9334 19 12.1875V2.8125C19 2.06658 18.6997 1.35121 18.1653 0.823762C17.6308 0.296316 16.9059 0 16.15 0ZM15.5135 1.875L9.5 6.32812L3.4865 1.875H15.5135ZM16.15 13.125H2.85C2.59804 13.125 2.35641 13.0262 2.17825 12.8504C2.00009 12.6746 1.9 12.4361 1.9 12.1875V3.04688L8.93 8.25C9.09444 8.37171 9.29445 8.4375 9.5 8.4375C9.70555 8.4375 9.90556 8.37171 10.07 8.25L17.1 3.04688V12.1875C17.1 12.4361 16.9999 12.6746 16.8218 12.8504C16.6436 13.0262 16.402 13.125 16.15 13.125Z" fill="black"/>
</svg>
