<svg width="18" height="19" viewBox="0 0 18 19" fill="none" xmlns="http://www.w3.org/2000/svg">
<path d="M17.2938 15.5055C16.8423 14.439 16.1871 13.4702 15.3646 12.6531C14.5446 11.8337 13.5733 11.1804 12.5042 10.7293C12.4947 10.7245 12.4851 10.7221 12.4755 10.7173C13.9667 9.64322 14.9361 7.89359 14.9361 5.9196C14.9361 2.6495 12.2792 0 9 0C5.72077 0 3.06387 2.6495 3.06387 5.9196C3.06387 7.89359 4.03328 9.64322 5.52449 10.7197C5.51492 10.7245 5.50534 10.7269 5.49577 10.7317C4.42343 11.1828 3.46121 11.8296 2.63541 12.6555C1.81371 13.4732 1.15857 14.4418 0.706172 15.5079C0.261734 16.5516 0.0220377 17.6706 5.98544e-05 18.8043C-0.00057901 18.8297 0.00390188 18.8551 0.0132386 18.8788C0.0225753 18.9025 0.036579 18.9242 0.0544243 18.9424C0.0722696 18.9606 0.0935956 18.9751 0.117146 18.985C0.140696 18.9949 0.165993 19 0.191548 19H1.62771C1.73303 19 1.8168 18.9165 1.8192 18.8138C1.86707 16.9711 2.60908 15.2454 3.92078 13.9373C5.27795 12.5839 7.08033 11.8392 9 11.8392C10.9197 11.8392 12.722 12.5839 14.0792 13.9373C15.3909 15.2454 16.1329 16.9711 16.1808 18.8138C16.1832 18.9188 16.267 19 16.3723 19H17.8085C17.834 19 17.8593 18.9949 17.8829 18.985C17.9064 18.9751 17.9277 18.9606 17.9456 18.9424C17.9634 18.9242 17.9774 18.9025 17.9868 18.8788C17.9961 18.8551 18.0006 18.8297 17.9999 18.8043C17.976 17.6633 17.739 16.5534 17.2938 15.5055ZM9 10.0251C7.90134 10.0251 6.8673 9.59786 6.08938 8.82211C5.31146 8.04636 4.88301 7.0152 4.88301 5.9196C4.88301 4.824 5.31146 3.79284 6.08938 3.01709C6.8673 2.24133 7.90134 1.81407 9 1.81407C10.0987 1.81407 11.1327 2.24133 11.9106 3.01709C12.6885 3.79284 13.117 4.824 13.117 5.9196C13.117 7.0152 12.6885 8.04636 11.9106 8.82211C11.1327 9.59786 10.0987 10.0251 9 10.0251Z" fill="black"/>
</svg>
